<?xml version="1.0" standalone="no"?><!DOCTYPE svg PUBLIC "-//W3C//DTD SVG 1.1//EN" "http://www.w3.org/Graphics/SVG/1.1/DTD/svg11.dtd"><svg t="1604027287196" class="icon" viewBox="0 0 1024 1024" version="1.1" xmlns="http://www.w3.org/2000/svg" p-id="9708" xmlns:xlink="http://www.w3.org/1999/xlink" width="200" height="200"><defs><style type="text/css"></style></defs><path d="M790.482776 635.396845h-147.204038a24.485552 24.485552 0 0 0-24.517855 24.550158 20.447697 20.447697 0 0 0 7.171231 16.345237 25.842271 25.842271 0 0 0 17.346624 6.137539h147.204038a25.616151 25.616151 0 0 0 17.346625-6.137539 20.447697 20.447697 0 0 0 7.17123-16.345237 24.485552 24.485552 0 0 0-24.517855-24.550158z" fill="#5BBEA5" p-id="9709"></path><path d="M512 0A512 512 0 1 0 1024 512 512 512 0 0 0 512 0z m65.897792 845.3653q-21.126057 2.713438-51.103092 4.425489t-68.83735 1.71205q-19.769338 0-45.643912-1.356719t-53.848832-3.747129q-27.909653-2.422713-55.17325-5.814512t-49.746372-6.815899q-22.611987-3.391798-38.149653-6.783596c-10.46612-2.293502-17.023596-4.5547-19.769337-6.815899q-6.848202-5.45918-10.563029-33.401135t3.06877-72.229149q4.102461-25.196215 20.447697-38.504984a127.725426 127.725426 0 0 1 38.504984-21.093754q22.127445-7.84959 45.643912-13.987129a148.011609 148.011609 0 0 0 41.993691-17.701956 106.405552 106.405552 0 0 0 22.159748-17.378928 52.589022 52.589022 0 0 0 10.886056-16.700567 47.678991 47.678991 0 0 0 3.06877-17.023597q0-8.883281-0.67836-19.769337a37.762019 37.762019 0 0 0-10.918359-24.873186q-9.497035-9.206309-20.415395-18.735647a44.610221 44.610221 0 0 1-9.884668-13.276467 170.558991 170.558991 0 0 1-7.84959-17.378927q-3.391798-10.24-6.815899-21.804417a31.430662 31.430662 0 0 1-9.529338-4.78082 53.525804 53.525804 0 0 1-8.527949-9.529337 59.760252 59.760252 0 0 1-7.817287-17.734259 47.90511 47.90511 0 0 1-3.06877-21.093754 72.939811 72.939811 0 0 1 3.747129-17.055899 44.02877 44.02877 0 0 1 8.850978-14.310158 487.772871 487.772871 0 0 1 2.745741-51.684542 341.764038 341.764038 0 0 1 9.529338-47.000631 135.381199 135.381199 0 0 1 21.126057-44.965552 133.152303 133.152303 0 0 1 29.072555-31.366057 145.362776 145.362776 0 0 1 32.302839-19.058675 135.090473 135.090473 0 0 1 33.045805-9.206309 230.254637 230.254637 0 0 1 32.302839-2.39041 150.402019 150.402019 0 0 1 38.149653 4.78082 188.325552 188.325552 0 0 1 33.982586 12.242776 153.244669 153.244669 0 0 1 27.941956 17.055899 114.384353 114.384353 0 0 1 19.769338 19.058675 143.715331 143.715331 0 0 1 25.842271 48.034322 324.255899 324.255899 0 0 1 11.596719 50.101703 446.23142 446.23142 0 0 1 3.391798 55.173249 23.613375 23.613375 0 0 1 7.494259 8.883281 44.610221 44.610221 0 0 1 4.425489 12.242776 58.14511 58.14511 0 0 1 0.355331 19.090978 62.958233 62.958233 0 0 1-5.782208 22.805804 45.902334 45.902334 0 0 1-9.884669 13.30877 34.790158 34.790158 0 0 1-12.921135 7.494259c-2.261199 7.720379-4.5547 14.988517-6.815899 21.804416a163.775394 163.775394 0 0 1-7.84959 17.378928 45.223975 45.223975 0 0 1-9.852366 13.276467 51.684543 51.684543 0 0 0-9.690852 10.886056 63.798107 63.798107 0 0 0-5.45918 10.91836c-1.356719 3.617918-2.810347 7.591167-4.425489 11.919748a58.14511 58.14511 0 0 1-7.138927 13.276467q-32.044416 49.068013-37.148265 88.606687a213.198738 213.198738 0 0 0 3.747129 76.977666 158.283912 158.283912 0 0 0 8.883281 28.620315 129.986625 129.986625 0 0 0 18.024984 30.332366 198.823975 198.823975 0 0 0 30.009338 30.300063 209.12858 209.12858 0 0 0 45.96694 27.941956 399.327697 399.327697 0 0 1-42.768959 6.718991z m276.318486-128.080757a153.276972 153.276972 0 0 1-80.078739 80.046435 142.875457 142.875457 0 0 1-57.91899 11.919748 144.781325 144.781325 0 0 1-58.59735-11.919748 154.181451 154.181451 0 0 1-47.678991-32.302839 149.368328 149.368328 0 0 1-32.012113-47.678991 150.434322 150.434322 0 0 1 0-115.837981 148.883785 148.883785 0 0 1 138.288454-91.320126 146.493375 146.493375 0 0 1 57.91899 11.596719 149.174511 149.174511 0 0 1 47.775899 31.947508 153.923028 153.923028 0 0 1 32.30284 47.711294 146.687192 146.687192 0 0 1 0 115.837981z" fill="#5BBEA5" p-id="9710"></path></svg>