<?xml version="1.0" standalone="no"?><!DOCTYPE svg PUBLIC "-//W3C//DTD SVG 1.1//EN" "http://www.w3.org/Graphics/SVG/1.1/DTD/svg11.dtd"><svg t="1606101916934" class="icon" viewBox="0 0 1024 1024" version="1.1" xmlns="http://www.w3.org/2000/svg" p-id="33950" xmlns:xlink="http://www.w3.org/1999/xlink" width="200" height="200"><defs><style type="text/css"></style></defs><path d="M195.75 297.92s-36.48-0.96-61.44 74.88c-13.44 40.32-19.2 83.52-9.6 150.72 11.52 83.52 73.92 166.080 126.72 226.56 38.4 43.2 153.6 132.48 247.68 163.2s78.72 28.8 94.080 30.72c16.32 1.92-117.12 16.32-117.12 16.32s-204.48-74.88-259.2-172.8-177.6-141.12-143.040-453.12c7.68-67.2 54.72-87.36 83.52-71.040 28.8 16.32 38.4 34.56 38.4 34.56z" fill="#D7EFF9" p-id="33951"></path><path d="M210.15 244.16l114.24 146.88 1.92 1.92c5.76 7.68 9.6 15.36 11.52 24 1.92 9.6 2.88 19.2 0.96 28.8-0.96 9.6-3.84 19.2-9.6 26.88l-0.96 1.92c-4.8 7.68-10.56 14.4-18.24 19.2l-1.92 1.92-55.68 40.32c-3.84 8.64-7.68 25.92 7.68 48 24 35.52 51.84 68.16 81.6 97.92 30.72 30.72 62.4 57.6 97.92 81.6 22.080 15.36 39.36 10.56 48 7.68l41.28-57.6c5.76-8.64 13.44-14.4 21.12-20.16 8.64-4.8 18.24-8.64 27.84-9.6h0.96c9.6-0.96 19.2 0 27.84 1.92h1.92c8.64 2.88 16.32 6.72 24 12.48l146.88 114.24 1.92 1.92c7.68 6.72 13.44 13.44 18.24 22.080 4.8 9.6 7.68 20.16 7.68 30.72s-0.96 21.12-4.8 30.72-9.6 18.24-18.24 25.92c-9.6 8.64-21.12 18.24-35.52 26.88l-1.92 0.96c-13.44 7.68-29.76 15.36-48 22.080-80.64 26.88-167.040 22.080-250.56-5.76-87.36-28.8-171.84-84.48-240.96-153.6-67.2-67.2-121.92-151.68-151.68-240-27.84-82.56-32.64-168.96-5.76-249.6 6.72-20.16 14.4-35.52 22.080-49.92 9.6-14.4 18.24-25.92 27.84-35.52 7.68-8.64 16.32-14.4 25.92-18.24l1.92-0.96c8.64-2.88 18.24-4.8 28.8-3.84 10.56 0 21.12 2.88 29.76 7.68l1.92 0.96 22.080 19.2zM277.35 428.48l-114.24-147.84c-0.96-1.92-1.92-2.88-3.84-2.88l-0.96-0.96c-1.92-0.96-2.88-0.96-5.76-0.96h-5.76c-1.92 0.96-2.88 1.92-4.8 3.84-6.72 6.72-12.48 15.36-19.2 24.96-6.72 10.56-12.48 23.040-17.28 37.44-23.040 68.16-18.24 142.080 5.76 213.12 25.92 78.72 75.84 154.56 138.24 216.96 63.36 63.36 139.2 112.32 216.96 138.24 71.040 24 144.96 27.84 213.12 5.76 14.4-4.8 25.92-10.56 36.48-16.32l0.96-0.96c10.56-5.76 19.2-12.48 25.92-19.2 0.96-0.96 1.92-2.88 2.88-3.84 0.96-0.96 0.96-2.88 0.96-5.76 0-1.92 0-3.84-0.96-5.76-0.96-0.96-0.96-1.92-2.88-2.88v-0.96l-146.88-113.28c-1.92-0.96-2.88-1.92-3.84-1.92-1.92 0-3.84-0.96-4.8 0-1.92 0-3.84 0.96-4.8 1.92-1.92 0-2.88 1.92-3.84 3.84l-45.12 61.44c-2.88 3.84-5.76 6.72-9.6 8.64 0 0-52.8 37.44-117.12-7.68-38.4-26.88-73.92-56.64-106.56-88.32-31.68-32.64-62.4-67.2-88.32-105.6-45.12-65.28-7.68-117.12-7.68-118.080 1.92-3.84 4.8-6.72 7.68-8.64l60.48-44.16 1.92-1.92c1.92-0.96 1.92-1.92 2.88-2.88l0.96-0.96c0.96-0.96 0.96-2.88 0.96-4.8v-4.8c0-0.96-0.96-1.92-1.92-3.84v-0.96zM210.15 244.16zM210.15 244.16z" fill="#12B7F5" p-id="33952"></path><path d="M825.51 199.040c72 72 110.4 168 110.4 267.84 0 15.36 12.48 27.84 27.84 27.84s27.84-12.48 27.84-27.84c0-114.24-45.12-224.64-127.68-307.2-81.6-82.56-192-127.68-306.24-127.68-15.36 0-27.84 12.48-27.84 27.84s12.48 27.84 27.84 27.84c99.84 0.96 195.84 39.36 267.84 111.36z" fill="#1BE0D6" p-id="33953"></path><path d="M739.11 285.44c48.96 48.96 74.88 114.24 74.88 181.44 0 15.36 12.48 27.84 27.84 27.84s27.84-12.48 27.84-27.84c0-82.56-32.64-162.24-92.16-221.76s-139.2-92.16-221.76-92.16c-15.36 0-27.84 12.48-27.84 27.84s12.48 27.84 27.84 27.84c70.080 0.96 134.4 27.84 183.36 76.8z" fill="#1BE0D6" p-id="33954"></path><path d="M652.71 371.84c25.92 25.92 39.36 59.52 39.36 95.040 0 15.36 12.48 27.84 27.84 27.84s27.84-12.48 27.84-27.84c0-49.92-19.2-98.88-55.68-134.4-36.48-36.48-84.48-55.68-134.4-55.68-15.36 0-27.84 12.48-27.84 27.84s12.48 27.84 27.84 27.84c35.52 0 69.12 14.4 95.040 39.36z" fill="#1BE0D6" p-id="33955"></path></svg>