<?xml version="1.0" standalone="no"?><!DOCTYPE svg PUBLIC "-//W3C//DTD SVG 1.1//EN" "http://www.w3.org/Graphics/SVG/1.1/DTD/svg11.dtd"><svg t="1606101722390" class="icon" viewBox="0 0 1024 1024" version="1.1" xmlns="http://www.w3.org/2000/svg" p-id="25182" xmlns:xlink="http://www.w3.org/1999/xlink" width="200" height="200"><defs><style type="text/css"></style></defs><path d="M748 260.8c-17.6-17.6-46.4-17.6-64.8 0L26.4 917.6c-17.6 17.6-17.6 46.4 0 64.8 17.6 17.6 46.4 17.6 64.8 0L748 325.6c17.6-17.6 17.6-46.4 0-64.8z" fill="#d81e06" p-id="25183"></path><path d="M402.4 510.4L267.2 645.6l-56 56c-40-49.6-74.4-103.2-104-162.4C89.6 504 73.6 468 60 429.6c-16-44-27.2-89.6-33.6-136-0.8-8.8-2.4-17.6-3.2-25.6-6.4-69.6 17.6-128.8 64.8-179.2 16.8-17.6 34.4-33.6 52.8-49.6 7.2-6.4 14.4-12 22.4-16 47.2-28 107.2-24 148.8 14.4 39.2 36 76 75.2 109.6 116 36 43.2 36.8 101.6 6.4 146.4-4 6.4-8.8 12.8-14.4 18.4-12.8 14.4-28 27.2-41.6 40-30.4 28.8-34.4 58.4-11.2 93.6 12.8 20.8 26.4 40 41.6 58.4zM988 887.2c-4 6.4-8.8 12.8-14.4 19.2-1.6 2.4-4 4-5.6 6.4-22.4 25.6-47.2 49.6-76 68.8-31.2 20.8-68.8 32.8-106.4 37.6-40 4.8-78.4-4-116.8-14.4-32-8-63.2-19.2-93.6-32-103.2-44-194.4-101.6-271.2-172l62.4-62.4 128-128c23.2 21.6 48 41.6 73.6 61.6 30.4 23.2 60.8 20.8 88.8-4.8 14.4-12.8 28-26.4 42.4-39.2 7.2-6.4 15.2-12 24-16.8 48-26.4 108-20 148.8 19.2 35.2 34.4 68.8 69.6 101.6 106.4 40 44 44 104 14.4 150.4z" fill="#d81e06" p-id="25184"></path><path d="M25.6 293.6c76 148.8 157.6 263.2 240.8 352l-56 56c-40-49.6-74.4-103.2-104-162.4-17.6-35.2-33.6-71.2-47.2-109.6-15.2-44-27.2-89.6-33.6-136zM968 912.8c-2.4 0-7.2 8-8.8 9.6-3.2 4-7.2 7.2-11.2 11.2-7.2 7.2-14.4 14.4-21.6 20.8-14.4 13.6-30.4 25.6-48 35.2-36.8 20.8-80.8 31.2-122.4 29.6-18.4-0.8-36-4-53.6-7.2-42.4-8-83.2-20.8-123.2-37.6-0.8-0.8-2.4-0.8-3.2-1.6-103.2-44-194.4-101.6-271.2-172l62.4-62.4c204.8 164.8 416.8 190.4 600.8 174.4z" fill="#d81e06" p-id="25185"></path><path d="M428 300L163.2 22.4c47.2-28 107.2-24 148.8 14.4C351.2 72.8 388 112 421.6 152.8c35.2 44 36 102.4 6.4 147.2zM988 887.2L724 611.2c48-26.4 108-20 148.8 19.2 35.2 34.4 68.8 69.6 101.6 106.4 39.2 44 43.2 104 13.6 150.4z" fill="#d81e06" p-id="25186"></path></svg>