<?xml version="1.0" standalone="no"?><!DOCTYPE svg PUBLIC "-//W3C//DTD SVG 1.1//EN" "http://www.w3.org/Graphics/SVG/1.1/DTD/svg11.dtd"><svg t="1606100806700" class="icon" viewBox="0 0 1024 1024" version="1.1" xmlns="http://www.w3.org/2000/svg" p-id="2802" xmlns:xlink="http://www.w3.org/1999/xlink" width="200" height="200"><defs><style type="text/css"></style></defs><path d="M315.816 345.518a8.192 8.192 0 0 1-7.596-5.108L196.838 67.04a8.202 8.202 0 0 1 4.502-10.69l77.594-31.614c13.558-5.526 28.456-5.442 41.958 0.242 13.496 5.682 23.972 16.28 29.498 29.842l76.198 187.018c11.406 27.996-2.088 60.05-30.082 71.456l-77.594 31.616a8.172 8.172 0 0 1-3.096 0.608zM215.124 68.448l105.194 258.18 69.998-28.52c19.618-7.994 29.074-30.458 21.08-50.076l-76.198-187.018a38.164 38.164 0 0 0-20.672-20.914 38.168 38.168 0 0 0-29.404-0.17l-69.998 28.518z" fill="#4A555F" p-id="2803"></path><path d="M240.066 78.948l52.276-21.3a19.162 19.162 0 0 1 7.26-1.438 19.226 19.226 0 0 1 17.874 12.02l76.198 187.018a19.152 19.152 0 0 1-0.086 14.76 19.134 19.134 0 0 1-10.494 10.374l-52.276 21.3-90.752-222.734z" fill="#F58E6F" p-id="2804"></path><path d="M980.708 848.428a8.198 8.198 0 0 1-3.094-0.606l-273.366-111.384a8.204 8.204 0 0 1-4.502-10.69l31.612-77.592c5.526-13.562 16.002-24.16 29.498-29.842 13.5-5.684 28.404-5.766 41.958-0.242l187.018 76.2c13.562 5.526 24.162 16.002 29.842 29.498 5.682 13.496 5.77 28.396 0.242 41.958l-31.616 77.594a8.214 8.214 0 0 1-4.414 4.466 8.244 8.244 0 0 1-3.178 0.64z m-262.678-124.086l258.176 105.194 28.52-69.998a38.168 38.168 0 0 0-0.17-29.404 38.16 38.16 0 0 0-20.912-20.672l-187.018-76.2a38.176 38.176 0 0 0-29.404 0.17 38.176 38.176 0 0 0-20.672 20.914l-28.52 69.996z" fill="#4A555F" p-id="2805"></path><path d="M742.974 713.84l21.296-52.276a19.226 19.226 0 0 1 25.132-10.58l187.018 76.2a19.168 19.168 0 0 1 10.498 10.374 19.148 19.148 0 0 1 0.086 14.758l-21.3 52.276-222.73-90.752z" fill="#F58E6F" p-id="2806"></path><path d="M760.92 1003.346c-125.734 0-278.202-88.978-454.272-265.34C106.798 537.824 20.28 367.578 49.498 231.998c27.418-127.232 146.96-173.804 152.034-175.724a8.194 8.194 0 0 1 10.498 4.576l111.382 273.37a8.202 8.202 0 0 1-4.432 10.662l-88.868 37.142c-9.688 102.434 156.672 272.5 158.378 274.23 1.65 1.628 171.698 167.952 274.146 158.298l37.144-88.866a8.2 8.2 0 0 1 10.66-4.434l273.37 111.384a8.2 8.2 0 0 1 4.616 10.39c-1.864 5.148-47.134 126.42-173.87 154.562-17.292 3.84-35.184 5.758-53.636 5.758zM200.012 74.83c-25.936 12.162-112.862 59.854-134.524 160.824-27.838 129.762 57.204 294.88 252.766 490.764 197.688 198.02 363.486 283.858 492.742 255.158 100.792-22.382 147.268-110.79 158.962-136.868l-258.184-105.196-35.846 85.768a8.2 8.2 0 0 1-6.354 4.95c-109.916 16.406-285.274-155.066-292.686-162.374-7.39-7.49-178.878-182.836-162.454-292.768a8.208 8.208 0 0 1 4.948-6.356l85.768-35.846-105.138-258.056z" fill="#4A555F" p-id="2807"></path><path d="M761.632 967.708c-116.426-0.01-261.044-85.74-429.834-254.812-187.76-188.072-273.412-351.56-247.692-472.79 16.106-75.932 73.192-119.284 106.142-138.518l90.026 220.952-82.49 34.476-2.278 15.242c-7.732 51.758 18.83 120.094 78.944 203.11 42.754 59.04 86.874 103.96 88.732 105.842 1.992 1.968 43.12 42.374 98.372 83.332 76.932 57.028 141.682 85.942 192.448 85.94a125.176 125.176 0 0 0 18.398-1.33l15.242-2.278 34.474-82.486 221.638 90.304c-21.594 39.262-76.25 113.014-182.11 113.014l-0.012 0.002z" fill="#F58E6F" p-id="2808"></path><path d="M715.406 488.05c-4.156-82.23-71.956-146.644-154.35-146.644v-16.402c91.14 0 166.134 71.256 170.73 162.22l-16.38 0.826z" fill="#4A555F" p-id="2809"></path><path d="M815.31 487.888c-4.25-138.084-115.9-246.248-254.182-246.248l-0.072-16.402h0.072c147.202 0 266.054 115.15 270.58 262.148l-16.398 0.502z" fill="#4A555F" p-id="2810"></path><path d="M913.414 487.818c-2.056-92.394-39.598-178.928-105.714-243.662-66.224-64.84-153.764-100.548-246.498-100.548l-0.144-16.402h0.144c97.05 0 188.666 37.372 257.972 105.23 69.194 67.748 108.488 158.316 110.638 255.016l-16.398 0.366z" fill="#4A555F" p-id="2811"></path><path d="M1004.928 487.782c-2.098-116.788-49.182-226.258-132.578-308.246-83.496-82.09-193.974-127.3-311.074-127.3l-0.218-16.402h0.218c121.432 0 235.99 46.88 322.576 132.004 86.476 85.018 135.3 198.538 137.476 319.65l-16.4 0.294zM261.334 756.048a1151.934 1151.934 0 0 1-11.71-11.658l11.656-11.542a1119.384 1119.384 0 0 0 11.544 11.492l-11.49 11.708z m-23.248-23.476c-3.856-4-7.646-7.994-11.378-11.984l11.976-11.208a1143.306 1143.306 0 0 0 11.212 11.81l-11.81 11.382z m-22.588-24.116a1214.98 1214.98 0 0 1-11.04-12.288l12.28-10.876a1158.108 1158.108 0 0 0 10.884 12.12l-12.124 11.044z m-21.906-24.73a1123.056 1123.056 0 0 1-10.698-12.59l12.574-10.53a1176.976 1176.976 0 0 0 10.548 12.412l-12.424 10.708z m-21.224-25.32a1184.192 1184.192 0 0 1-10.35-12.874l12.852-10.19a1206.536 1206.536 0 0 0 10.212 12.7l-12.714 10.364zM151.84 632.518a1221.152 1221.152 0 0 1-9.998-13.154l13.13-9.832a1162.816 1162.816 0 0 0 9.86 12.972l-12.992 10.014z m-19.812-26.438a1216.668 1216.668 0 0 1-9.638-13.424l13.396-9.47a1145.884 1145.884 0 0 0 9.498 13.238l-13.256 9.656z m-19.086-26.978a1134.218 1134.218 0 0 1-9.262-13.69l13.654-9.094a1132.53 1132.53 0 0 0 9.128 13.494l-13.52 9.29z m-18.332-27.51a1129.604 1129.604 0 0 1-8.866-13.954l13.91-8.692a1082.93 1082.93 0 0 0 8.738 13.75l-13.782 8.896z m-17.528-28.042a1059.664 1059.664 0 0 1-8.442-14.228l14.172-8.258a1033.1 1033.1 0 0 0 8.314 14.004l-14.044 8.482z m-16.658-28.608a887.856 887.856 0 0 1-7.958-14.534l14.46-7.742a889.406 889.406 0 0 0 7.814 14.268l-14.316 8.008z m-15.626-29.272c-3.884-7.69-5.73-11.458-6.604-13.6l-0.652-1.33 0.142-0.07c-0.28-0.924-0.28-1.428-0.28-2.118h4.664l10.244-4.95 0.614 1.252c0.058 0.114 0.112 0.23 0.166 0.348 0.114 0.254 2.202 4.862 6.348 13.07l-14.642 7.398z m-14.08-30.442a399.38 399.38 0 0 1-6.002-15.658l15.436-5.55a379.224 379.224 0 0 0 5.75 15.01l-15.184 6.198z m-11.354-31.51a445.16 445.16 0 0 1-4.742-16.034l15.816-4.358a425.78 425.78 0 0 0 4.566 15.444l-15.64 4.948zM10.5 371.47a420.55 420.55 0 0 1-3.492-16.362L23.112 352a415.44 415.44 0 0 0 3.358 15.732l-15.97 3.738zM4.18 338.6a387.26 387.26 0 0 1-2.136-16.628l16.312-1.73c0.574 5.414 1.262 10.728 2.046 15.918L4.18 338.6zM0.636 305.26A355.272 355.272 0 0 1 0 288.48l16.402-0.23c0.072 5.294 0.278 10.678 0.604 16.004l-16.37 1.006z m15.94-33.002l-16.392-0.59c0.202-5.634 0.556-11.288 1.044-16.8l16.338 1.452a304.66 304.66 0 0 0-0.99 15.938z m2.83-31.786l-16.232-2.344c0.8-5.562 1.772-11.154 2.886-16.62l16.072 3.27a284 284 0 0 0-2.726 15.694z m6.366-31.184l-15.852-4.22c1.45-5.44 3.08-10.888 4.85-16.192l15.56 5.19a254.914 254.914 0 0 0-4.558 15.222z m10.054-30.128l-15.202-6.156a267.666 267.666 0 0 1 6.84-15.47l14.786 7.106a251.012 251.012 0 0 0-6.424 14.52z m13.754-28.6l-14.3-8.036a268.206 268.206 0 0 1 8.746-14.474l13.766 8.92a254.88 254.88 0 0 0-8.212 13.59z m17.266-26.642l-13.184-9.76a281.742 281.742 0 0 1 10.452-13.264l12.574 10.532a265.6 265.6 0 0 0-9.842 12.492z m20.418-24.392l-11.944-11.242a306.72 306.72 0 0 1 11.888-11.94l11.304 11.888a286.324 286.324 0 0 0-11.248 11.294zM679.89 718.582l-15.356-5.77 5.77-15.356 15.356 5.77-5.77 15.356z m11.538-30.71l-15.356-5.77 5.77-15.354 15.356 5.77-5.77 15.354z m11.54-30.708l-15.356-5.77 5.846-15.504 15.234 6.08-5.724 15.194z m12.444-28.508l-13.91-8.69a98.102 98.102 0 0 1 10.818-14.234l12.1 11.076a81.822 81.822 0 0 0-9.008 11.848z m151.26-12.906l-15.308-5.894 5.894-15.308 15.308 5.894-5.894 15.308z m-131.236-8.954l-9.888-13.09a99.24 99.24 0 0 1 15.17-9.432l7.368 14.654a82.644 82.644 0 0 0-12.65 7.868z m100.622-2.832l-15.308-5.894 5.894-15.308 15.308 5.894-5.894 15.308z m-74.116-10.5l-4.614-15.74a98.892 98.892 0 0 1 17.524-3.454l1.698 16.314c-4.924 0.512-9.84 1.482-14.608 2.88z m44.16-0.538a81.81 81.81 0 0 0-14.67-2.526l1.298-16.352c5.924 0.472 11.852 1.492 17.612 3.034l-4.24 15.844z" fill="#4A555F" p-id="2812"></path></svg>