<?xml version="1.0" standalone="no"?><!DOCTYPE svg PUBLIC "-//W3C//DTD SVG 1.1//EN" "http://www.w3.org/Graphics/SVG/1.1/DTD/svg11.dtd"><svg t="1604027914723" class="icon" viewBox="0 0 1024 1024" version="1.1" xmlns="http://www.w3.org/2000/svg" p-id="29629" xmlns:xlink="http://www.w3.org/1999/xlink" width="200" height="200"><defs><style type="text/css"></style></defs><path d="M132.973714 772.461714h178.029715v-474.697143H132.973714v474.697143z m47.542857-427.154285h59.392v356.059428h-59.392V345.234286z m367.542858 308.150857V60.050286H370.029714v712.118857h59.318857V119.369143h59.318858v534.089143h59.392z m118.637714-415.451429h59.392V475.428571h59.318857V178.688H607.378286v356.059429h59.318857V238.08z m278.747428 302.957714l-42.715428-48.64a57.709714 57.709714 0 0 0-41.398857-16.896 60.708571 60.708571 0 0 0-42.130286 17.408l-330.532571 269.970286v128h127.634285l328.777143-266.752a59.026286 59.026286 0 0 0 0.365714-83.090286z m-350.208 290.523429h-47.177142v-47.616l312.246857-249.417143 0.365714 0.292572h0.219429l42.349714 48.786285-308.004572 247.954286z" fill="#1890FF" p-id="29630"></path></svg>