<?xml version="1.0" standalone="no"?><!DOCTYPE svg PUBLIC "-//W3C//DTD SVG 1.1//EN" "http://www.w3.org/Graphics/SVG/1.1/DTD/svg11.dtd"><svg t="1606102020836" class="icon" viewBox="0 0 1024 1024" version="1.1" xmlns="http://www.w3.org/2000/svg" p-id="37684" xmlns:xlink="http://www.w3.org/1999/xlink" width="200" height="200"><defs><style type="text/css"></style></defs><path d="M399.957333 311.210667l-105.813333 107.52c55.125333 122.368 171.946667 258.56 307.456 304.298666l91.477333-91.221333s216.746667 37.888 265.557334 61.610667c42.24 20.48 56.149333 65.877333 49.578666 121.856-7.168 60.245333-86.016 193.024-228.181333 194.56-142.08 1.365333-351.402667-105.728-501.333333-263.68C128.853333 588.117333-4.864 387.754667 16.469333 217.770667 37.888 47.701333 186.026667 17.322667 223.061333 14.506667c37.546667-2.730667 67.242667 8.277333 89.856 36.266666 29.013333 36.010667 87.04 260.266667 87.04 260.266667zM279.808 86.016c-17.578667-23.04-47.872-26.88-78.165333-19.797333C174.677333 72.533333 76.629333 113.237333 62.72 222.208c-15.36 121.173333 75.008 326.229333 237.141333 483.072 162.133333 156.928 318.378667 248.405333 452.693334 259.413333 134.314667 11.008 199.765333-107.264 209.408-142.848 9.557333-35.498667 1.621333-71.338667-17.664-85.589333-24.576-18.261333-235.861333-56.064-235.861334-56.064L612.693333 774.656c-157.525333-51.2-305.92-194.730667-369.066666-370.176L348.16 299.093333s-50.688-190.037333-68.266667-213.077333z" fill="#1886BF" p-id="37685"></path><path d="M840.533333 454.058667H595.456a26.88 26.88 0 0 1-14.592-2.218667L580.266667 451.413333a24.405333 24.405333 0 0 1-7.68-5.12c-0.256-0.256-0.853333-0.341333-1.109334-0.597333-0.597333-0.597333-0.682667-1.536-1.28-2.133333a21.845333 21.845333 0 0 1-3.072-4.693334 26.453333 26.453333 0 0 1-3.413333-10.154666c-0.085333-1.194667-0.768-2.389333-0.682667-3.754667V176.64c0-16.042667 12.970667-29.013333 28.842667-28.928a29.013333 29.013333 0 0 1 29.013333 29.013333v178.602667L820.224 156.16a29.44 29.44 0 0 1 41.472 0 29.354667 29.354667 0 0 1-0.085333 41.472L662.954667 396.117333l177.493333 0.085334a29.013333 29.013333 0 0 1 0 57.856z m75.946667-353.109334a29.269333 29.269333 0 1 1 41.472-41.386666 29.269333 29.269333 0 0 1-41.472 41.386666z" fill="#1886BF" p-id="37686"></path></svg>