<?xml version="1.0" standalone="no"?><!DOCTYPE svg PUBLIC "-//W3C//DTD SVG 1.1//EN" "http://www.w3.org/Graphics/SVG/1.1/DTD/svg11.dtd"><svg t="1604027031630" class="icon" viewBox="0 0 1024 1024" version="1.1" xmlns="http://www.w3.org/2000/svg" p-id="8815" xmlns:xlink="http://www.w3.org/1999/xlink" width="200" height="200"><defs><style type="text/css"></style></defs><path d="M512 512m-333.1 0a333.1 333.1 0 1 0 666.2 0 333.1 333.1 0 1 0-666.2 0Z" fill="#489FF5" p-id="8816"></path><path d="M512 1024C229.7 1024 0 794.3 0 512S229.7 0 512 0s512 229.7 512 512-229.7 512-512 512z m0-994.7C245.8 29.3 29.3 245.8 29.3 512S245.8 994.7 512 994.7 994.7 778.2 994.7 512 778.2 29.3 512 29.3z" fill="#489FF5" p-id="8817"></path></svg>