<?xml version="1.0" standalone="no"?>
<!DOCTYPE svg PUBLIC "-//W3C//DTD SVG 1.1//EN" "http://www.w3.org/Graphics/SVG/1.1/DTD/svg11.dtd">
<svg t="1604024900169" class="icon" viewBox="0 0 1024 1024" version="1.1" xmlns="http://www.w3.org/2000/svg" p-id="5836" xmlns:xlink="http://www.w3.org/1999/xlink" width="200" height="200">
<defs>
<style type="text/css">
</style>
</defs>
<path d="M677.724115 6.676188H151.89487C137.27084 6.676188 129.640912 9.219497 129.640912 31.791369v964.55014c0 6.358274 7.629929 27.658491 22.253958 27.658491h726.114871c14.62403 0 14.62403-21.300217 14.62403-27.658491v-762.99286c0-12.716548 4.132878-16.849426 0-19.710648L685.989871 6.676188c-2.861223-2.861223-4.132878 0-8.265756 0z" fill="#E9E9E0" p-id="5837">
</path>
<path d="M701.885556 0v229.215771h202.511021z" fill="#D9D7CA" p-id="5838">
</path>
<path d="M66.058173 578.920832m61.675256 0l766.807824 0q61.675256 0 61.675256 61.675256l0 226.354548q0 61.675256-61.675256 61.675257l-766.807824 0q-61.675256 0-61.675256-61.675257l0-226.354548q0-61.675256 61.675256-61.675256Z" fill="#22B573" p-id="5839">
</path>
<path d="M470.444389 794.784229a97.917417 97.917417 0 0 1-19.710649 65.808134 70.894753 70.894753 0 0 1-56.588637 22.889785 80.750078 80.750078 0 0 1-31.791369-5.722446v-42.918348a44.190003 44.190003 0 0 0 27.340577 9.219497q31.791369 0 31.791369-50.548277v-130.0267h46.097485zM508.594032 826.575598a90.287488 90.287488 0 0 0 59.44986 21.618131 50.548277 50.548277 0 0 0 28.294318-6.358274 19.392735 19.392735 0 0 0 9.537411-16.849426 23.843527 23.843527 0 0 0-7.629928-16.531512 141.471593 141.471593 0 0 0-39.739212-21.300217q-50.866191-21.618131-50.86619-63.582738a54.681155 54.681155 0 0 1 22.889785-46.733313 101.414468 101.414468 0 0 1 60.721515-16.849426 149.737349 149.737349 0 0 1 53.409501 7.629929v43.236262a88.380006 88.380006 0 0 0-50.866191-14.941944 52.137845 52.137845 0 0 0-27.340577 6.358274 18.756908 18.756908 0 0 0-10.173239 16.849426 21.618131 21.618131 0 0 0 6.994102 15.577771 130.0267 130.0267 0 0 0 34.334678 19.074821 113.177274 113.177274 0 0 1 44.507917 29.24806 57.542378 57.542378 0 0 1 12.08072 36.560074 55.316982 55.316982 0 0 1-21.936044 47.36914 103.957777 103.957777 0 0 1-63.582739 16.213599 134.795405 134.795405 0 0 1-61.039428-12.080721z" fill="#FFFFFF" p-id="5840"></path><path d="M591.251591 354.79168a173.898789 173.898789 0 0 1-35.288419 116.992238 127.165477 127.165477 0 0 1-100.77864 40.692953 144.014902 144.014902 0 0 1-54.045328-9.855325v-77.253027a78.524682 78.524682 0 0 0 48.640795 16.213598q59.131947 0 59.131946-89.651661V121.125116h82.021733z" fill="#22B573" p-id="5841">
</path>
</svg>