<?xml version="1.0" standalone="no"?><!DOCTYPE svg PUBLIC "-//W3C//DTD SVG 1.1//EN" "http://www.w3.org/Graphics/SVG/1.1/DTD/svg11.dtd"><svg t="1606101126835" class="icon" viewBox="0 0 1024 1024" version="1.1" xmlns="http://www.w3.org/2000/svg" p-id="21915" xmlns:xlink="http://www.w3.org/1999/xlink" width="200" height="200"><defs><style type="text/css"></style></defs><path d="M772.28973 467.857297L664.216216 359.783784l107.935135-107.935135a38.192432 38.192432 0 0 0-53.967567-53.967568l-107.796757 107.935135-107.935135-107.935135a38.192432 38.192432 0 0 0-53.967568 53.967568l107.935135 107.935135-107.935135 107.935135a38.054054 38.054054 0 0 0 53.967568 53.829189l107.935135-107.796757 107.796757 107.796757a38.054054 38.054054 0 0 0 53.967567-53.829189z" fill="#ED5A5A" p-id="21916"></path><path d="M356.324324 594.196757a837.604324 837.604324 0 0 1-107.243243-124.540541c-25.323243-39.022703-35.701622-72.787027-17.435676-93.543784 28.505946-28.505946 54.521081-50.646486 61.024865-80.536216s-6.503784-67.528649-55.351351-127.308108c-46.771892-59.779459-87.04-66.283243-122.04973-51.338378S49.677838 168.12973 23.801081 193.72973c-31.273514 31.135135-32.518919 103.922162 2.490811 196.774054s106.551351 205.907027 221.405405 318.27027c111.80973 111.80973 224.726486 183.212973 318.270271 218.914595s166.054054 35.701622 196.774054 4.566486c25.876757-26.015135 62.27027-55.351351 77.215135-90.914594s8.441081-75.416216-51.338379-122.188109c-59.641081-49.262703-98.663784-61.024865-129.245405-53.829189s-52.583784 33.072432-78.598919 59.087568c-20.756757 18.127568-55.351351 7.749189-96.034595-18.265946a740.462703 740.462703 0 0 1-127.308108-111.671351z" fill="#ED5A5A" p-id="21917"></path></svg>