<?xml version="1.0" standalone="no"?><!DOCTYPE svg PUBLIC "-//W3C//DTD SVG 1.1//EN" "http://www.w3.org/Graphics/SVG/1.1/DTD/svg11.dtd"><svg t="1604027651535" class="icon" viewBox="0 0 1024 1024" version="1.1" xmlns="http://www.w3.org/2000/svg" p-id="16286" xmlns:xlink="http://www.w3.org/1999/xlink" width="200" height="200"><defs><style type="text/css"></style></defs><path d="M809.322465 1024H214.677535C97.386075 1024 2.311667 928.925592 2.311667 811.634131V212.365869C2.311667 95.074408 97.386075 0 214.677535 0h594.64493c117.29146 0 212.365869 95.074408 212.365868 212.365869v599.27965c-0.034163 117.280073-95.074408 212.354481-212.365868 212.354481zM644.579207 420.279217c-18.789409-82.536748-92.489441-144.200171-180.708562-144.200172a185.49132 185.49132 0 0 0-185.49132 185.491321c0 88.105246 61.49261 161.70279 143.858545 180.628849 18.914671 82.25206 92.455278 143.676345 180.480812 143.676345A185.297733 185.297733 0 0 0 788.050577 600.600603c0-87.888883-61.31041-161.327002-143.47137-180.321386zM463.870645 647.061686a185.616583 185.616583 0 0 1-41.621387-4.862471 185.183857 185.183857 0 0 1-4.862472-41.587225c0-102.316871 82.980861-185.252182 185.331896-185.252182a185.434383 185.434383 0 0 1 41.860525 4.919409 185.024432 185.024432 0 0 1-180.708562 226.782469z" fill="#4BCF8C" p-id="16287"></path></svg>