<?xml version="1.0" standalone="no"?><!DOCTYPE svg PUBLIC "-//W3C//DTD SVG 1.1//EN" "http://www.w3.org/Graphics/SVG/1.1/DTD/svg11.dtd"><svg t="1604026504592" class="icon" viewBox="0 0 1024 1024" version="1.1" xmlns="http://www.w3.org/2000/svg" p-id="7816" xmlns:xlink="http://www.w3.org/1999/xlink" width="200" height="200"><defs><style type="text/css"></style></defs><path d="M111.933793 149.009655m69.737931 0l672.662069 0q69.737931 0 69.737931 69.737931l0 557.903448q0 69.737931-69.737931 69.737932l-672.662069 0q-69.737931 0-69.737931-69.737932l0-557.903448q0-69.737931 69.737931-69.737931Z" fill="#FFFFFF" p-id="7817"></path><path d="M437.671724 803.663448c-43.431724 0-61.086897 50.493793-25.246896 72.209655 44.667586 27.012414 79.624828 54.024828 101.340689 54.024828s65.324138-27.012414 109.815173-54.024828c35.310345-21.892414 17.655172-72.209655-25.246897-72.209655z" fill="#4FD086" p-id="7818"></path><path d="M876.755862 859.277241H158.896552c-59.674483 0-108.402759-38.311724-108.402759-85.451034v-564.965517C50.846897 161.897931 99.575172 123.586207 158.896552 123.586207h717.85931c59.674483 0 108.226207 38.311724 108.226207 85.274483v564.965517c0 47.13931-49.257931 85.451034-108.226207 85.451034zM158.896552 182.377931a30.72 30.72 0 0 0-33.544828 26.482759v564.965517a30.543448 30.543448 0 0 0 33.544828 26.482759h717.85931a30.543448 30.543448 0 0 0 33.544828-26.482759v-564.965517a30.72 30.72 0 0 0-33.544828-26.482759z" fill="#4FD086" p-id="7819"></path><path d="M341.804138 560.904828L435.553103 459.034483h-88.275862v-51.376552h170.372414v45.197241L423.724138 557.726897h99.222069v51.729655H341.804138zM685.373793 536.893793c0 55.613793-25.246897 77.329655-75.74069 77.329655s-74.151724-28.601379-74.151724-72.562758v-17.655173h55.966897v11.475862c0 15.536552 0 30.013793 17.655172 30.013793s14.830345-19.597241 14.830345-28.601379v-129.235862h62.322759z" fill="#4FD086" p-id="7820"></path></svg>